  <svg display="none" version="1.1" xmlns="http://www.w3.org/2000/svg" xmlns:xlink="http://www.w3.org/1999/xlink">
<defs>
  <symbol id="outside" viewBox="0 0 17.03 14">
    <path d="M1029.42,2705.01h-9.92a1.532,1.532,0,0,0-1.57,1.49v2.25h-2.37a1.541,1.541,0,0,0-1.58,1.49v7.26a1.541,1.541,0,0,0,1.58,1.49h9.91a1.541,1.541,0,0,0,1.58-1.49v-2.25h2.37a1.541,1.541,0,0,0,1.58-1.49v-7.26A1.541,1.541,0,0,0,1029.42,2705.01Zm-4.17,12.27h-9.47v-6.83h2.15v3.31a1.532,1.532,0,0,0,1.57,1.49h5.75v2.03Zm3.94-3.73h-9.46v-6.83h9.46v6.83Z" transform="translate(-1013.97 -2705)" />
  </symbol>
</defs>
</svg>
